<?xml version="1.0" encoding="utf-8"?>
<!-- Generator: Adobe Illustrator 16.0.0, SVG Export Plug-In . SVG Version: 6.00 Build 0)  -->
<!DOCTYPE svg PUBLIC "-//W3C//DTD SVG 1.1//EN" "http://www.w3.org/Graphics/SVG/1.1/DTD/svg11.dtd">
<svg version="1.1" id="Capa_1" xmlns="http://www.w3.org/2000/svg" xmlns:xlink="http://www.w3.org/1999/xlink" x="0px" y="0px"
	 width="141.73px" height="141.73px" viewBox="0 0 141.73 141.73" enable-background="new 0 0 141.73 141.73" xml:space="preserve">
<g>
	<path fill="#575756" d="M115.727,118.014c-0.522,0-1.027-0.198-1.412-0.554l-0.956-0.934c-6.294-6.071-9.589-8.759-15.451-5.576
		c-3.381,1.838-7.309,0-10.459-1.341l-0.519-0.234c-2.398-1.08-4.823-2.072-7.279-3.064c-5.047-1.879-9.949-4.124-14.673-6.716
		c-0.956-0.523-1.995-1.021-3.119-1.574c-5.258-2.512-12.45-5.84-9.162-16.232c-0.161-0.574-0.461-1.104-0.864-1.545
		c-3.178-3.445-6.122-7.185-8.956-10.772c-4.657-6.495-10.103-12.38-16.203-17.514L38.746,72.39c0.489,0.863,0.32,1.954-0.402,2.628
		l-1.791,1.604c-0.462,0.402-1.073,0.582-1.677,0.498c-0.612-0.091-1.153-0.454-1.472-0.992c-1.117-1.557-2.597-2.813-4.304-3.65
		c-3.092-1.838-7.137-4.263-7.165-10.598c-0.181-0.508-0.513-0.948-0.956-1.252c-7.422-3.943-10.513-10.655-13.52-17.225
		c-1.412-3.42-3.185-6.678-5.283-9.722c-2.163-2.801-2.684-5.195-1.702-7.063C1.456,24.751,3.821,23.7,7.753,23.7
		c4.124,0.293,8.144,1.403,11.842,3.27c2.136,1.033,4.346,1.89,6.613,2.567c5.778,1.461,10.545,2.684,16.035,0
		c9.244-4.493,15.539,4.145,17.707,7.385l0.952,1.373c0.897,1.373,1.761,2.626,2.486,2.92c0.721,0.292,1.241,0,2.886-1.341
		c2.344-1.666,7.049-3.392,12.479,3.881c1.143,1.618,2.152,3.329,3.035,5.104c2.253,4.262,4.189,7.942,9.33,8.964
		c1.22,0.146,2.292,0.871,2.89,1.955c0.71,2.095,0.478,4.402-0.638,6.306l-0.172,0.469c-3.237,8.172-0.378,14.942,5.258,23.35
		c2.453,3.651,5.774,4.818,11.351,3.886l1.212-0.206c5.404-0.874,8.265-1.578,9.506-6.422c1.228-3.211,3.765-5.731,6.961-6.917
		c3.428-1.864,7.444-2.284,11.179-1.169l0,0c2.557,1.093,3.75,4.072,2.669,6.658c-0.08,0.19-0.171,0.373-0.272,0.552
		c-2.483,7.063-5.776,16.464-17.851,15.441c0.515,1.092,0.741,2.297,0.666,3.504c-0.447,2.344-1.854,4.391-3.871,5.632
		c-2.311,1.843-3.062,2.688-2.428,4.644c0.302,0.903-0.059,1.896-0.868,2.395C116.397,118.018,116.062,118.057,115.727,118.014
		L115.727,118.014z"/>
	<path fill="#575756" d="M102.47,105.436c4.36,0,7.944,2.713,11.556,5.983c0.891-1.575,2.113-2.931,3.581-3.97
		c1.416-1.139,2.281-1.9,2.369-2.775c0.087-0.875-0.23-1.984-2.571-4.64c-0.581-0.703-0.661-1.695-0.2-2.483
		c0.482-0.769,1.405-1.134,2.281-0.903c11.553,3.064,14.642-2.717,17.88-11.911c0.607-1.663,0.549-1.691-0.318-2.103
		c-2.615-0.589-5.354-0.172-7.683,1.169c-2.066,0.71-3.786,2.178-4.826,4.115c-1.934,7.679-7.711,8.759-12.794,9.458l-1.187,0.205
		c-7.078,1.198-12.102-0.642-15.427-5.665c-5.023-7.355-10.021-16.14-5.774-27.085l0.202-0.497c0.362-0.854,0.633-1.743,0.81-2.658
		c-7.078-1.459-9.767-6.54-12.136-11.063c-0.79-1.593-1.698-3.123-2.712-4.58c-3.813-5.112-5.98-3.563-6.818-2.923
		c-1.674,1.509-3.893,2.248-6.127,2.043c-2.229-0.746-4.063-2.38-5.082-4.525l-0.864-1.281c-4.622-6.452-8.261-8.231-12.625-6.13
		c-6.818,3.237-12.566,1.78-18.659,0.234c-2.527-0.673-4.987-1.563-7.367-2.659c-3.208-1.632-6.701-2.621-10.282-2.918
		c-2.889,0-3.583,0.612-3.583,0.642l0,0c0,0,0,0.762,1.327,2.717c2.292,3.262,4.232,6.767,5.778,10.45
		c2.889,6.188,5.518,12.025,11.699,15.323c1.758,1,2.914,2.816,3.092,4.845c0,4.028,2.166,5.343,5.143,7.155l1.125,0.695
		c-4.186-7.206-8.404-14.361-12.622-21.537c-0.402-0.667-0.402-1.502,0-2.16c0.34-0.554,0.919-0.908,1.56-0.967
		c0.659-0.506,1.553-0.575,2.281-0.176c9.648,5.488,16.232,13.866,22.734,21.954c2.885,3.531,5.632,7.182,8.664,10.505
		c1.473,1.414,2.161,3.465,1.85,5.49c-2.165,6.627,1.069,8.553,6.96,11.383c1.128,0.558,2.315,1.11,3.384,1.726
		c4.56,2.505,9.279,4.709,14.122,6.595c2.458,0.992,4.94,2.014,7.368,3.093l0.549,0.234c2.34,1.052,5.226,2.367,6.814,1.491
		C97.918,106.138,100.17,105.486,102.47,105.436L102.47,105.436z"/>
</g>
</svg>
